Coordinates
version=1
nRows=7
nColumns=40
inDegrees=yes

Units are S.I. units (second, meters, Newtons, ...)
Angles are in degrees.

endheader
time	pelvis_tilt	pelvis_list	pelvis_rotation	pelvis_tx	pelvis_ty	pelvis_tz	hip_flexion_r	hip_adduction_r	hip_rotation_r	knee_angle_r	knee_angle_r_beta	ankle_angle_r	subtalar_angle_r	mtp_angle_r	hip_flexion_l	hip_adduction_l	hip_rotation_l	knee_angle_l	knee_angle_l_beta	ankle_angle_l	subtalar_angle_l	mtp_angle_l	lumbar_extension	lumbar_bending	lumbar_rotation	arm_flex_r	arm_add_r	arm_rot_r	elbow_flex_r	pro_sup_r	wrist_flex_r	wrist_dev_r	arm_flex_l	arm_add_l	arm_rot_l	elbow_flex_l	pro_sup_l	wrist_flex_l	wrist_dev_l
      1.91750000	     -7.28294240	     -3.84327208	      8.19012005	      1.07371009	      0.91929818	      0.47204313	      0.13362567	      1.12637340	    -16.77326827	     14.14672734	     14.14672734	     16.91995464	     -2.03258078	     -2.60429264	     27.78399768	     -2.65116351	      4.99691584	     26.49077236	     26.49077236	      7.92335797	    -13.95900926	      4.93031724	     -7.46704249	      3.21859424	      4.11061450	     52.45129533	    -14.96016523	     -0.38487973	     77.48893938	     44.87738585	      0.00000000	      0.00000000	    -10.29340022	    -13.10851807	     24.87123420	     31.13458134	     43.18442910	      0.00000000	      0.00000000
      1.93971429	     -7.35724245	     -3.82903962	      7.78790249	      1.07422758	      0.91933598	      0.46764526	     -0.11138473	      0.71936922	    -16.88537521	     14.21037473	     14.21037473	     16.72436199	     -1.35051193	     -3.02020341	     27.65955855	     -2.47481344	      4.73912843	     27.00510887	     27.00510887	      9.26643227	    -13.84383873	      6.81737686	     -7.28501854	      3.28418139	      3.64599056	     53.15779506	    -14.10631855	     -0.81094904	     71.79507949	     45.10230082	      0.00000000	      0.00000000	     -9.79808285	    -13.35168764	     24.95451718	     31.13588392	     43.29801591	      0.00000000	      0.00000000
      1.96192857	     -7.41541425	     -3.83361424	      7.39368613	      1.07468429	      0.91939771	      0.46334809	     -0.32115386	      0.36993722	    -16.71545486	     14.33809815	     14.33809815	     16.59374665	     -1.08326979	     -3.06304486	     27.39691382	     -2.34404795	      4.42760825	     27.22610334	     27.22610334	      9.84901610	    -13.94101290	      6.89978995	     -7.26453140	      3.36427052	      3.95632448	     52.31680469	    -14.63168065	     -1.04653880	     70.05020894	     45.16996439	      0.00000000	      0.00000000	     -8.87539255	    -13.67044370	     24.69845260	     31.54454706	     43.37943605	      0.00000000	      0.00000000
      1.98414286	     -7.47500834	     -3.83572428	      7.01741545	      1.07499856	      0.91948459	      0.45905622	     -0.44858713	     -0.03852273	    -16.72358093	     14.60935459	     14.60935459	     16.50659725	     -0.57219448	     -3.17233551	     27.13713727	     -2.20424545	      4.10859179	     27.44465247	     27.44465247	     10.58684881	    -13.91387625	      7.30426506	     -7.19418726	      3.46596398	      3.70101310	     51.93463713	    -14.23168204	     -1.70971611	     66.67105163	     45.31374460	      0.00000000	      0.00000000	     -8.12054078	    -13.89432247	     24.49262213	     31.61270574	     43.51440516	      0.00000000	      0.00000000
      2.00635714	     -7.51822854	     -3.79489008	      6.62275730	      1.07528770	      0.91967879	      0.45487013	     -0.49688035	     -0.49915479	    -16.57364343	     15.04281437	     15.04281437	     16.40370576	     -0.33957304	     -3.25593882	     26.75150663	     -2.04496920	      3.73465948	     27.46135613	     27.46135613	     11.06196539	    -13.92641453	      7.21577298	     -7.16665772	      3.48777494	      3.94486005	     50.67900123	    -14.76356408	     -1.99858550	     64.85302917	     45.38209313	      0.00000000	      0.00000000	     -7.10038174	    -14.16892718	     24.24505936	     31.94516826	     43.58863819	      0.00000000	      0.00000000
      2.02857143	     -7.53793465	     -3.78304682	      6.22810584	      1.07550594	      0.91987578	      0.45078073	     -0.42304453	     -0.98317866	    -16.50198994	     15.73336877	     15.73336877	     16.33582344	     -0.00714086	     -3.46113720	     26.34406852	     -1.92365794	      3.35285908	     27.46990595	     27.46990595	     11.54265770	    -13.92586918	      7.10292753	     -7.12568425	      3.55379203	      4.07786701	     49.41661430	    -15.07218383	     -2.47536010	     62.50123464	     45.47528958	      0.00000000	      0.00000000	     -5.99783163	    -14.36350961	     24.04744232	     32.10776683	     43.66221151	      0.00000000	      0.00000000
      2.05078571	     -7.52046331	     -3.73939356	      5.83445976	      1.07575328	      0.92018024	      0.44677545	     -0.25886979	     -1.53644827	    -16.38257813	     16.66467661	     16.66467661	     16.24054937	      0.18388705	     -3.77879936	     25.85821326	     -1.77600112	      2.95870551	     27.41552990	     27.41552990	     11.97862968	    -13.90772835	      6.97363711	     -7.10585531	      3.58686239	      4.04325087	     47.90769909	    -15.22405550	     -2.92640905	     60.18742772	     45.56473700	      0.00000000	      0.00000000	     -4.93235604	    -14.54703991	     23.88074301	     32.15933281	     43.72676163	      0.00000000	      0.00000000
